<svg width="1600" height="1000" viewBox="0 0 1600 1000" fill="none" xmlns="http://www.w3.org/2000/svg">
  <rect width="1600" height="1000" fill="#F6F7F9"/>
  <text x="80" y="90" font-family="Inter, Arial, sans-serif" font-size="48" font-weight="800" fill="#17202A">Work Buddy</text>
  <text x="80" y="130" font-family="Inter, Arial, sans-serif" font-size="22" fill="#526174">Multi-Agent Workstream Control System</text>

  <rect x="80" y="190" width="220" height="88" rx="12" fill="#FFFFFF" stroke="#D9E0E8" stroke-width="2"/>
  <text x="122" y="225" font-family="Inter, Arial, sans-serif" font-size="20" font-weight="700" fill="#17202A">Meetings</text>
  <text x="122" y="254" font-family="Inter, Arial, sans-serif" font-size="15" fill="#64748B">Transcripts / notes</text>

  <rect x="330" y="190" width="220" height="88" rx="12" fill="#FFFFFF" stroke="#D9E0E8" stroke-width="2"/>
  <text x="382" y="225" font-family="Inter, Arial, sans-serif" font-size="20" font-weight="700" fill="#17202A">Slack</text>
  <text x="382" y="254" font-family="Inter, Arial, sans-serif" font-size="15" fill="#64748B">Threads / drafts</text>

  <rect x="580" y="190" width="220" height="88" rx="12" fill="#FFFFFF" stroke="#D9E0E8" stroke-width="2"/>
  <text x="630" y="225" font-family="Inter, Arial, sans-serif" font-size="20" font-weight="700" fill="#17202A">Email</text>
  <text x="630" y="254" font-family="Inter, Arial, sans-serif" font-size="15" fill="#64748B">Requests / replies</text>

  <rect x="830" y="190" width="220" height="88" rx="12" fill="#FFFFFF" stroke="#D9E0E8" stroke-width="2"/>
  <text x="882" y="225" font-family="Inter, Arial, sans-serif" font-size="20" font-weight="700" fill="#17202A">Jira</text>
  <text x="882" y="254" font-family="Inter, Arial, sans-serif" font-size="15" fill="#64748B">Issues / updates</text>

  <rect x="1080" y="190" width="220" height="88" rx="12" fill="#FFFFFF" stroke="#D9E0E8" stroke-width="2"/>
  <text x="1122" y="225" font-family="Inter, Arial, sans-serif" font-size="20" font-weight="700" fill="#17202A">GitHub</text>
  <text x="1122" y="254" font-family="Inter, Arial, sans-serif" font-size="15" fill="#64748B">Repo / PR drafts</text>

  <rect x="440" y="380" width="720" height="260" rx="18" fill="#E8F5F3" stroke="#0F766E" stroke-width="3"/>
  <text x="560" y="430" font-family="Inter, Arial, sans-serif" font-size="30" font-weight="800" fill="#0F3F3B">ADK Multi-Agent System</text>
  <text x="580" y="464" font-family="Inter, Arial, sans-serif" font-size="17" fill="#2B5D59">Root coordinator delegates to focused specialist agents</text>

  <rect x="490" y="500" width="190" height="72" rx="10" fill="#FFFFFF" stroke="#BFD8D4"/>
  <text x="520" y="530" font-family="Inter, Arial, sans-serif" font-size="17" font-weight="700" fill="#17202A">Source Intake</text>
  <text x="520" y="554" font-family="Inter, Arial, sans-serif" font-size="13" fill="#64748B">ingest + extract</text>

  <rect x="705" y="500" width="190" height="72" rx="10" fill="#FFFFFF" stroke="#BFD8D4"/>
  <text x="728" y="530" font-family="Inter, Arial, sans-serif" font-size="17" font-weight="700" fill="#17202A">Reconciler</text>
  <text x="728" y="554" font-family="Inter, Arial, sans-serif" font-size="13" fill="#64748B">merge + memory</text>

  <rect x="920" y="500" width="190" height="72" rx="10" fill="#FFFFFF" stroke="#BFD8D4"/>
  <text x="956" y="530" font-family="Inter, Arial, sans-serif" font-size="17" font-weight="700" fill="#17202A">PR Agent</text>
  <text x="956" y="554" font-family="Inter, Arial, sans-serif" font-size="13" fill="#64748B">repo + PR drafts</text>

  <rect x="600" y="585" width="190" height="72" rx="10" fill="#FFFFFF" stroke="#BFD8D4"/>
  <text x="622" y="615" font-family="Inter, Arial, sans-serif" font-size="17" font-weight="700" fill="#17202A">Connector Agent</text>
  <text x="622" y="639" font-family="Inter, Arial, sans-serif" font-size="13" fill="#64748B">Slack / Jira / email</text>

  <rect x="815" y="585" width="190" height="72" rx="10" fill="#FFFFFF" stroke="#BFD8D4"/>
  <text x="842" y="615" font-family="Inter, Arial, sans-serif" font-size="17" font-weight="700" fill="#17202A">Security Agent</text>
  <text x="842" y="639" font-family="Inter, Arial, sans-serif" font-size="13" fill="#64748B">approval gates</text>

  <rect x="80" y="410" width="260" height="190" rx="16" fill="#FFFFFF" stroke="#D9E0E8" stroke-width="2"/>
  <text x="118" y="452" font-family="Inter, Arial, sans-serif" font-size="24" font-weight="800" fill="#17202A">MCP Server</text>
  <text x="118" y="485" font-family="Inter, Arial, sans-serif" font-size="16" fill="#64748B">Local stdio bridge exposing</text>
  <text x="118" y="510" font-family="Inter, Arial, sans-serif" font-size="16" fill="#64748B">ledger + connector tools</text>
  <text x="118" y="555" font-family="Inter, Arial, sans-serif" font-size="15" font-weight="700" fill="#2563EB">tools/list</text>
  <text x="218" y="555" font-family="Inter, Arial, sans-serif" font-size="15" font-weight="700" fill="#2563EB">tools/call</text>

  <rect x="1260" y="410" width="260" height="190" rx="16" fill="#FFFFFF" stroke="#D9E0E8" stroke-width="2"/>
  <text x="1300" y="452" font-family="Inter, Arial, sans-serif" font-size="24" font-weight="800" fill="#17202A">Agent Skills</text>
  <text x="1300" y="485" font-family="Inter, Arial, sans-serif" font-size="16" fill="#64748B">SKILL.md packages</text>
  <text x="1300" y="520" font-family="Inter, Arial, sans-serif" font-size="15" fill="#64748B">extractor · reconciler</text>
  <text x="1300" y="545" font-family="Inter, Arial, sans-serif" font-size="15" fill="#64748B">PR writer · memory</text>
  <text x="1300" y="570" font-family="Inter, Arial, sans-serif" font-size="15" fill="#64748B">approval · redaction</text>

  <rect x="180" y="750" width="250" height="110" rx="14" fill="#FFFFFF" stroke="#D9E0E8" stroke-width="2"/>
  <text x="226" y="790" font-family="Inter, Arial, sans-serif" font-size="22" font-weight="800" fill="#17202A">Tasks</text>
  <text x="226" y="821" font-family="Inter, Arial, sans-serif" font-size="15" fill="#64748B">Owners, deadlines, blockers</text>

  <rect x="505" y="750" width="250" height="110" rx="14" fill="#FFFFFF" stroke="#D9E0E8" stroke-width="2"/>
  <text x="548" y="790" font-family="Inter, Arial, sans-serif" font-size="22" font-weight="800" fill="#17202A">Memory Ledger</text>
  <text x="548" y="821" font-family="Inter, Arial, sans-serif" font-size="15" fill="#64748B">Evidence + audit events</text>

  <rect x="830" y="750" width="250" height="110" rx="14" fill="#FFFFFF" stroke="#D9E0E8" stroke-width="2"/>
  <text x="878" y="790" font-family="Inter, Arial, sans-serif" font-size="22" font-weight="800" fill="#17202A">Approvals</text>
  <text x="878" y="821" font-family="Inter, Arial, sans-serif" font-size="15" fill="#64748B">Human-in-the-loop gates</text>

  <rect x="1155" y="750" width="250" height="110" rx="14" fill="#FFFFFF" stroke="#D9E0E8" stroke-width="2"/>
  <text x="1195" y="790" font-family="Inter, Arial, sans-serif" font-size="22" font-weight="800" fill="#17202A">PR Drafts</text>
  <text x="1195" y="821" font-family="Inter, Arial, sans-serif" font-size="15" fill="#64748B">Branch, body, test plan</text>

  <defs>
    <marker id="arrow" viewBox="0 0 10 10" refX="9" refY="5" markerWidth="7" markerHeight="7" orient="auto-start-reverse">
      <path d="M 0 0 L 10 5 L 0 10 z" fill="#64748B"/>
    </marker>
  </defs>
  <path d="M190 278 L690 380" stroke="#64748B" stroke-width="3" marker-end="url(#arrow)"/>
  <path d="M440 278 L735 380" stroke="#64748B" stroke-width="3" marker-end="url(#arrow)"/>
  <path d="M690 278 L800 380" stroke="#64748B" stroke-width="3" marker-end="url(#arrow)"/>
  <path d="M940 278 L870 380" stroke="#64748B" stroke-width="3" marker-end="url(#arrow)"/>
  <path d="M1190 278 L930 380" stroke="#64748B" stroke-width="3" marker-end="url(#arrow)"/>
  <path d="M340 505 L440 505" stroke="#64748B" stroke-width="3" marker-end="url(#arrow)"/>
  <path d="M1260 505 L1160 505" stroke="#64748B" stroke-width="3" marker-end="url(#arrow)"/>
  <path d="M800 640 L305 750" stroke="#64748B" stroke-width="3" marker-end="url(#arrow)"/>
  <path d="M800 640 L630 750" stroke="#64748B" stroke-width="3" marker-end="url(#arrow)"/>
  <path d="M800 640 L955 750" stroke="#64748B" stroke-width="3" marker-end="url(#arrow)"/>
  <path d="M800 640 L1280 750" stroke="#64748B" stroke-width="3" marker-end="url(#arrow)"/>

  <text x="80" y="930" font-family="Inter, Arial, sans-serif" font-size="18" fill="#64748B">Built for the 5-Day AI Agents Intensive capstone: ADK multi-agent systems, MCP, skills, memory, approval security, and evaluation.</text>
</svg>
